# xmcd
#
# Track frame offsets: 
#        150
#        14659
#        31128
#        49805
#        55123
#        76853
#        93699
#        109926
#        126752
#        149835
#        166350
#        185184
#
# Disc length: 2746 seconds
#
# Revision: 0
# Processed by: cddbd v1.5.2PL0 Copyright (c) Steve Scherf et al.
# Submitted via: ExactAudioCopy v1.0b1
#
DISCID=ac0ab80c
DTITLE=Chris Walker - Zone
DYEAR=2011
DGENRE=R&B
TTITLE0=Everyday Woman
TTITLE1=Off My Mind (Free My Mind)
TTITLE2=Wish We Never Met
TTITLE3=If Only For One Night (Intro)
TTITLE4=If Only For One Night
TTITLE5=I Got That Love
TTITLE6=Mr. Invisible
TTITLE7=The Dance Of Love
TTITLE8=How Do You Heal A Broken Heart
TTITLE9=Purity
TTITLE10=That's What It Feel Like
TTITLE11=I Want You
EXTD=
EXTT0=
EXTT1=
EXTT2=
EXTT3=
EXTT4=
EXTT5=
EXTT6=
EXTT7=
EXTT8=
EXTT9=
EXTT10=
EXTT11=
PLAYORDER=
